<svg xmlns="http://www.w3.org/2000/svg" xmlns:xlink="http://www.w3.org/1999/xlink" width="710" height="710" viewBox="0 0 710 710">
    <defs>
        <linearGradient id="linear-gradient" x1="-0.168" y1="-0.136" x2="1.33" y2="1.304" gradientUnits="objectBoundingBox">
            <stop offset="0" stop-color="#0059b9"/>
            <stop offset="1" stop-color="#007aff"/>
        </linearGradient>
        <linearGradient id="linear-gradient-2" x2="1" y2="1" gradientUnits="objectBoundingBox">
            <stop offset="0" stop-color="#fff"/>
            <stop offset="0.49" stop-color="#fff"/>
            <stop offset="1" stop-color="#fff"/>
        </linearGradient>
        <filter id="Path_74" x="178.671" y="156.35" width="352.661" height="403.299" filterUnits="userSpaceOnUse">
            <feOffset dy="3" input="SourceAlpha"/>
            <feGaussianBlur stdDeviation="6" result="blur"/>
            <feFlood flood-opacity="0.102"/>
            <feComposite operator="in" in2="blur"/>
            <feComposite in="SourceGraphic"/>
        </filter>
        <linearGradient id="linear-gradient-3" x1="0.5" x2="0.5" y2="1" gradientUnits="objectBoundingBox">
            <stop offset="0" stop-color="#fff"/>
            <stop offset="1" stop-color="#d5e9ff"/>
        </linearGradient>
    </defs>
    <g id="Group_91" data-name="Group 91" transform="translate(-6180.19 -1934.19)">
        <path id="Path_78" data-name="Path 78" d="M30,0H680a30,30,0,0,1,30,30V680a30,30,0,0,1-30,30H30A30,30,0,0,1,0,680V30A30,30,0,0,1,30,0Z" transform="translate(6180.19 1934.19)" fill="url(#linear-gradient)"/>
        <g id="Group_83" data-name="Group 83" transform="translate(6376.861 2105.541)">
            <g transform="matrix(1, 0, 0, 1, -196.67, -171.35)" filter="url(#Path_74)">
                <path id="Path_74-2" data-name="Path 74" d="M8768.047,330.769v68.786s165.557-2.332,190.623,0,29.834,10.752,32.752,15.416,7.326,22.975,4.309,32.178-5.584,13.615-13.162,18.278-94.271,19.749-94.271,19.749l-120.25,25.137V581.43l185.705-37.066s20.111-4.4,28.816,1.727a95.885,95.885,0,0,1,14.518,12.56s7.061,9.106,7.221,18.369.471,14.6-1.256,20.1-4.4,11.3-8.949,15.857a36.578,36.578,0,0,1-18.684,10.676c-8.793,2.041-84.467,1.256-84.467,1.256V580.318l-77.713,16.014V698.068l163.121-.628s37.525-2.041,58.246-17.427,27.633-23.55,35.014-35.639c7.217-11.823,11.281-20.493,13.41-32.749s2.762-32.406-1.32-46.536-7.223-25.277-18.053-37.052-29.205-24.021-29.205-24.021a85.525,85.525,0,0,0,16.172-13.816c7.219-8.164,16.168-24.806,18.055-29.359a86.908,86.908,0,0,0,6.438-30.3c.627-15.386-1.885-28.574-3.615-33.441s-9.416-20.1-14.127-25.591-16.486-16.328-21.51-19.939-17.586-10.205-26.062-13.659-28.418-6.594-28.418-6.594Z" transform="translate(-8571.38 -159.42)" fill="url(#linear-gradient-2)"/>
            </g>
            <path id="Path_75" data-name="Path 75" d="M8813.818,423.792v78.259l78.256-16.435V423.792Z" transform="translate(-8771.992 -330.517)" fill="url(#linear-gradient-3)"/>
        </g>
    </g>
</svg>
