<svg id="Filled" height="512" viewBox="0 0 512 512" width="512" xmlns="http://www.w3.org/2000/svg"><path d="m256 311.941h112v32h-112z" fill="#ffd33a"/><path d="m272 279.941h112v32h-112z" fill="#ffb632"/><path d="m256 247.941h112v32h-112z" fill="#ffd33a"/><path d="m272 215.941h112v32h-112z" fill="#ffb632"/><path d="m256 183.941h112v32h-112z" fill="#ffd33a"/><path d="m272 151.941h112v32h-112z" fill="#ffb632"/><circle cx="384" cy="287.94" fill="#ffd33a" r="48"/><path d="m144 311.941h112v32h-112z" fill="#ffb632"/><path d="m240 343.941h112v32h-112z" fill="#ffb632"/><path d="m128 343.941h112v32h-112z" fill="#facf39"/><path d="m160 279.941h112v32h-112z" fill="#facf39"/><path d="m144 247.941h112v32h-112z" fill="#ffb632"/><path d="m160 215.941h112v32h-112z" fill="#facf39"/><path d="m144 183.941h112v32h-112z" fill="#ffb632"/><path d="m402.5 111.731-186.5-71.731-136 32-56 .03v104l40-.03 137.139 7.257a18.105 18.105 0 0 0 18.47-13.692 18.105 18.105 0 0 0 -13.174-21.956l-43.973-10.994 61.538-24.615 164.6 42.94a22.731 22.731 0 0 0 26.842-13.552 22.73 22.73 0 0 0 -12.942-29.657z" fill="#f0c6a4"/><path d="m162.467 144.617a8.007 8.007 0 0 1 -1.946-.241l-34.461-8.615a8 8 0 0 1 3.88-15.522l34.462 8.615a8 8 0 0 1 -1.935 15.763z" fill="#e0b999"/><path d="m109.5 408.269 186.5 71.731 136-32 56-.03v-104l-40 .03-137.139-7.257a18.105 18.105 0 0 0 -18.47 13.692 18.105 18.105 0 0 0 13.174 21.956l43.973 10.994-61.538 24.615-164.6-42.94a22.731 22.731 0 0 0 -26.842 13.552 22.73 22.73 0 0 0 12.942 29.657z" fill="#f0c6a4"/><path d="m384.006 400a8.007 8.007 0 0 1 -1.946-.241l-34.46-8.613a8 8 0 1 1 3.881-15.522l34.461 8.615a8 8 0 0 1 -1.936 15.761z" fill="#e0b999"/><path d="m368 303.941a8 8 0 0 0 8 8 8 8 0 1 0 16 0v-2.165a15.986 15.986 0 0 0 -8-29.835h8a8 8 0 0 0 0-16 8 8 0 0 0 -16 0v2.165a15.986 15.986 0 0 0 8 29.835h-8a8 8 0 0 0 -8 8z"/><path d="m488 335.971h-.006l-39.785.029-20.634-1.092a64.058 64.058 0 0 0 -35.575-110.449v-8.518a8 8 0 0 0 -8-8h-8v-16h8a8 8 0 0 0 8-8v-20.358a30.728 30.728 0 0 0 13.372-59.319l-186.5-71.731a8 8 0 0 0 -4.705-.32l-135.098 31.787-55.069.029a8 8 0 0 0 -8 8v104a8 8 0 0 0 8 8h.006l39.785-.029 72.209 3.821v28.12a8 8 0 0 0 8 8h8v16h-8a8 8 0 0 0 -8 8v32a8 8 0 0 0 8 8h8v16h-8a8 8 0 0 0 -8 8v24h-8a8 8 0 0 0 -8 8v12.476a30.728 30.728 0 0 0 -13.373 59.319l186.5 71.731a8 8 0 0 0 4.705.32l135.099-31.787 55.069-.029a8 8 0 0 0 8-8v-104a8 8 0 0 0 -8-8zm-104-96.03a48 48 0 0 1 15.384 93.475l-35.484-1.878a48.006 48.006 0 0 1 20.1-91.597zm-120 32v-16h64.61a63.614 63.614 0 0 0 -6.585 16zm58.025 32h-42.025v-16h40a64.178 64.178 0 0 0 2.025 16zm-58.025-96v-16h96v16zm0-56v24h-38.187a25.874 25.874 0 0 0 1.557-4.436 26.135 26.135 0 0 0 -19-31.657l-19.97-4.994 36.123-14.449 90.223 23.536h-42.746a8 8 0 0 0 -8 8zm-16 40v16h-96v-16zm-80 32h96v16h-96zm96 64v16h-96v-16zm20.016 64a26.032 26.032 0 0 0 3.39 16h-39.406v-16zm34.764 32 4.816 1.205-36.123 14.454-60.005-15.654h91.312zm-54.78-48v-16h64.554a63.9 63.9 0 0 0 7.227 10.11l-24.521-1.3a26.142 26.142 0 0 0 -19.267 7.188zm16-96v-16h96v.518a63.751 63.751 0 0 0 -34.264 15.482zm96-64h-96v-16h96zm-312-7.941-32 .023v-88l48-.023a7.936 7.936 0 0 0 1.829-.213l133.6-31.434 184.2 70.844a14.73 14.73 0 0 1 -9 28l-164.6-42.939a8.019 8.019 0 0 0 -4.991.313l-59.137 23.655-31.952-7.988a8 8 0 0 0 -3.88 15.522l78.434 19.608a10.106 10.106 0 0 1 -2.932 19.9s-137.428-7.268-137.571-7.268zm88 87.941h96v16h-96zm0 64h96v16h-96zm-16 32h96v16h-65.865l-30.135-7.861zm344 88.034-48 .025a7.936 7.936 0 0 0 -1.829.213l-133.6 31.434-184.2-70.847a14.73 14.73 0 0 1 9.006-28l164.6 42.939a8 8 0 0 0 4.991-.313l59.137-23.655 31.952 7.988a8 8 0 0 0 3.88-15.522l-78.434-19.608a10.106 10.106 0 0 1 2.932-19.9l137.139 7.257c.143.008 32.423-.012 32.423-.012z"/></svg>