<svg xmlns="http://www.w3.org/2000/svg" width="352" height="352" viewBox="0 0 352 352">
    <g transform="translate(-3366 -1154)">
        <g>
            <rect width="352" height="352" rx="176" transform="translate(3366 1154)" fill="#50af95"/>
        </g>
        <path d="M179.643,135.3h0c-1.091.082-6.728.418-19.3.418-10,0-17.1-.3-19.592-.418h0c-38.647-1.7-67.494-8.428-67.494-16.483s28.847-14.773,67.494-16.5V128.6c2.527.182,9.764.609,19.765.609,12,0,18.01-.5,19.092-.6V102.333c38.565,1.718,67.349,8.446,67.349,16.483s-28.774,14.764-67.349,16.474h0Zm0-35.684V76.1h53.821V40.23H86.929V76.1h53.812v23.51C97,101.615,64.11,110.279,64.11,120.661S97,139.7,140.741,141.717v75.367h38.893V141.689c43.638-2.009,76.476-10.664,76.476-21.037S223.3,101.624,179.634,99.606h0Zm0,0Z" transform="translate(3381.89 1201.343)" fill="#fff" fill-rule="evenodd"/>
    </g>
</svg>
